<?xml version="1.0" encoding="UTF-8"?>
<svg version="1.1" xmlns="http://www.w3.org/2000/svg" width="32" height="32">
<path d="M0 0 C10.56 0 21.12 0 32 0 C32 10.56 32 21.12 32 32 C21.44 32 10.88 32 0 32 C0 21.44 0 10.88 0 0 Z " fill="#E7B431" transform="translate(0,0)"/>
<path d="M0 0 C10.56 0 21.12 0 32 0 C32 10.56 32 21.12 32 32 C21.44 32 10.88 32 0 32 C0 21.44 0 10.88 0 0 Z M5.328125 5.58203125 C2.48266805 8.619975 2.05664296 11.37692745 1.6875 15.4375 C2.13631695 20.5540132 3.67323464 23.59741947 7.1875 27.3125 C10.75623036 29.45373821 13.88154406 30.31039833 18 30 C22.4104158 28.73200546 25.25326418 27.00342626 28 23.3125 C29.67403446 17.76726086 29.76749966 12.53546481 27.9375 7 C26.26090177 3.66123095 26.26090177 3.66123095 22.625 3.125 C21.42875 3.08375 20.2325 3.0425 19 3 C18.113125 2.814375 17.22625 2.62875 16.3125 2.4375 C11.29785716 1.48878379 9.08431537 2.19576872 5.328125 5.58203125 Z " fill="#FCFBF4" transform="translate(0,0)"/>
<path d="M0 0 C0.680625 0.00644531 1.36125 0.01289063 2.0625 0.01953125 C4 0.1875 4 0.1875 7 1.1875 C7.825 1.22875 8.65 1.27 9.5 1.3125 C12 2.1875 12 2.1875 13.8125 5.1875 C15.79971096 10.7176242 15.68522549 15.91769056 14 21.5 C11.26126182 25.18017943 8.40912078 26.94450318 4 28.1875 C1.02852192 28.30533448 -1.05958131 27.9097081 -4 27.1875 C-4.33 26.5275 -4.66 25.8675 -5 25.1875 C-1.37 25.1875 2.26 25.1875 6 25.1875 C6.33 24.1975 6.66 23.2075 7 22.1875 C8.32 22.5175 9.64 22.8475 11 23.1875 C11 20.2175 11 17.2475 11 14.1875 C10.01 14.5175 9.02 14.8475 8 15.1875 C8 14.5275 8 13.8675 8 13.1875 C7.67 13.1875 7.34 13.1875 7 13.1875 C6.34 13.8475 5.68 14.5075 5 15.1875 C4.01 14.1975 3.02 13.2075 2 12.1875 C3.32 11.5275 4.64 10.8675 6 10.1875 C5.34 8.8675 4.68 7.5475 4 6.1875 C3.01 6.5175 2.02 6.8475 1 7.1875 C-1.00875442 6.91178861 -3.01178687 6.58514263 -5 6.1875 C-5 5.1975 -5 4.2075 -5 3.1875 C-5.66 2.8575 -6.32 2.5275 -7 2.1875 C-3.97455666 0.17053778 -3.38932618 -0.07061096 0 0 Z " fill="#CBA742" transform="translate(14,1.8125)"/>
<path d="M0 0 C6.93 0 13.86 0 21 0 C21.66 1.32 22.32 2.64 23 4 C21.68 3.67 20.36 3.34 19 3 C18.67 3.99 18.34 4.98 18 6 C18 4.68 18 3.36 18 2 C11.09484128 2.77499265 11.09484128 2.77499265 5.4375 6.4375 C3.00015056 10.78234031 2.7490411 14.06447505 3 19 C3.91114536 22.32186171 3.91114536 22.32186171 5 25 C4.34 25 3.68 25 3 25 C-0.97783705 20.42500582 -0.34347787 15.39058461 -0.1875 9.6875 C-0.125625 6.490625 -0.06375 3.29375 0 0 Z " fill="#FBF8DE" transform="translate(0,0)"/>
<path d="M0 0 C0.99 0 1.98 0 3 0 C3 0.99 3 1.98 3 3 C3.556875 2.814375 4.11375 2.62875 4.6875 2.4375 C7.399133 1.92448835 9.34371039 2.3359276 12 3 C12 3.66 12 4.32 12 5 C10.68 5 9.36 5 8 5 C8 5.66 8 6.32 8 7 C7.34 7 6.68 7 6 7 C6 6.01 6 5.02 6 4 C5.67 4.33 5.34 4.66 5 5 C5.09017996 7.19050021 5.24666208 9.378466 5.4375 11.5625 C5.53933594 12.76003906 5.64117187 13.95757812 5.74609375 15.19140625 C5.82988281 16.11824219 5.91367188 17.04507812 6 18 C4.35 18 2.7 18 1 18 C-0.32 15.03 -1.64 12.06 -3 9 C-1.68 8.34 -0.36 7.68 1 7 C1.33 8.32 1.66 9.64 2 11 C2.66 10.01 3.32 9.02 4 8 C3.34 7.67 2.68 7.34 2 7 C1.34 6.67 0.68 6.34 0 6 C0 4.02 0 2.04 0 0 Z " fill="#CA900C" transform="translate(6,5)"/>
<path d="M0 0 C0.33 0.66 0.66 1.32 1 2 C1.33 2.33 1.66 2.66 2 3 C2.9099978 6.36699184 3.10717914 8.67846257 2 12 C0.68 12 -0.64 12 -2 12 C-2.33 12.66 -2.66 13.32 -3 14 C-6.63 14 -10.26 14 -14 14 C-14 13.34 -14 12.68 -14 12 C-10.7 12.33 -7.4 12.66 -4 13 C-4.33 12.01 -4.66 11.02 -5 10 C-5.99 10 -6.98 10 -8 10 C-8.66 9.34 -9.32 8.68 -10 8 C-9.360625 7.71125 -8.72125 7.4225 -8.0625 7.125 C-5.84793921 6.17176549 -5.84793921 6.17176549 -5 4 C-5.66 4 -6.32 4 -7 4 C-7 3.34 -7 2.68 -7 2 C-5.68 2 -4.36 2 -3 2 C-2.01 1.34 -1.02 0.68 0 0 Z " fill="#D4A21F" transform="translate(23,13)"/>
<path d="M0 0 C3 1 3 1 5 2 C4.67 3.98 4.34 5.96 4 8 C3.22914062 7.855625 2.45828125 7.71125 1.6640625 7.5625 C0.66117188 7.376875 -0.34171875 7.19125 -1.375 7 C-2.87160156 6.7215625 -2.87160156 6.7215625 -4.3984375 6.4375 C-6.88903545 5.94472017 -6.88903545 5.94472017 -9 6 C-9 5.01 -9 4.02 -9 3 C-9.66 2.67 -10.32 2.34 -11 2 C-7.28475712 -0.47682859 -4.30361706 -0.43538538 0 0 Z " fill="#D9B741" transform="translate(18,2)"/>
<path d="M0 0 C2.22568901 2.22568901 3.64520503 4.15493056 5 7 C4.1875 9.3125 4.1875 9.3125 3 11 C2.01 9.68 1.02 8.36 0 7 C0 10.84722163 0.24627274 12.66791821 2 16 C4.01735205 17.34410262 4.01735205 17.34410262 6 18 C5.01 18.33 4.02 18.66 3 19 C2.67 19.66 2.34 20.32 2 21 C-2.27271112 15.90031254 -3.45463028 12.70579667 -3 6 C-1.5 2.5625 -1.5 2.5625 0 0 Z " fill="#C3A03D" transform="translate(5,6)"/>
<path d="M0 0 C3.63 0 7.26 0 11 0 C11 5.94 11 11.88 11 18 C10.67 18 10.34 18 10 18 C9.87625 16.7625 9.7525 15.525 9.625 14.25 C9.09654039 9.83411886 9.09654039 9.83411886 7 6 C5.00819591 4.98377342 3.00847365 3.98287008 1 3 C0.67 2.01 0.34 1.02 0 0 Z " fill="#FDFEF8" transform="translate(21,0)"/>
<path d="M0 0 C0.99 0 1.98 0 3 0 C4.4606285 2.64738916 5 3.89448334 5 7 C4.01 7 3.02 7 2 7 C2 7.66 2 8.32 2 9 C1.38125 9.28875 0.7625 9.5775 0.125 9.875 C-2.13325765 10.93720042 -2.13325765 10.93720042 -4 13 C-4.99 12.01 -5.98 11.02 -7 10 C-5.68 9.34 -4.36 8.68 -3 8 C-3.66 6.68 -4.32 5.36 -5 4 C-3.68 4.66 -2.36 5.32 -1 6 C-0.67 4.02 -0.34 2.04 0 0 Z " fill="#E9BF3F" transform="translate(23,4)"/>
<path d="M0 0 C0.99 0 1.98 0 3 0 C3 0.99 3 1.98 3 3 C3.556875 2.814375 4.11375 2.62875 4.6875 2.4375 C7.399133 1.92448835 9.34371039 2.3359276 12 3 C12 3.66 12 4.32 12 5 C10.68 5 9.36 5 8 5 C8 5.66 8 6.32 8 7 C7.34 7 6.68 7 6 7 C6 6.01 6 5.02 6 4 C4.64381501 5.12534105 4.64381501 5.12534105 4.9375 8.0625 C4.958125 9.031875 4.97875 10.00125 5 11 C4.01 11.495 4.01 11.495 3 12 C3.33 10.68 3.66 9.36 4 8 C3.34 7.67 2.68 7.34 2 7 C1.34 6.67 0.68 6.34 0 6 C0 4.02 0 2.04 0 0 Z " fill="#BD8D12" transform="translate(6,5)"/>
<path d="M0 0 C0.33 0.66 0.66 1.32 1 2 C1.33 2.33 1.66 2.66 2 3 C2.9099978 6.36699184 3.10717914 8.67846257 2 12 C0.68 11.67 -0.64 11.34 -2 11 C-1.34 10.67 -0.68 10.34 0 10 C-0.33 8.35 -0.66 6.7 -1 5 C-1 5.66 -1 6.32 -1 7 C-2.32 7 -3.64 7 -5 7 C-5 6.01 -5 5.02 -5 4 C-5.66 4 -6.32 4 -7 4 C-7 3.34 -7 2.68 -7 2 C-5.68 2 -4.36 2 -3 2 C-2.01 1.34 -1.02 0.68 0 0 Z " fill="#CA9513" transform="translate(23,13)"/>
<path d="M0 0 C1.08667969 0.01804688 2.17335938 0.03609375 3.29296875 0.0546875 C4.54013672 0.08949219 4.54013672 0.08949219 5.8125 0.125 C6.4725 1.445 7.1325 2.765 7.8125 4.125 C6.4925 3.795 5.1725 3.465 3.8125 3.125 C3.4825 4.115 3.1525 5.105 2.8125 6.125 C2.8125 4.805 2.8125 3.485 2.8125 2.125 C1.1868193 2.43393932 -0.43802748 2.7472695 -2.0625 3.0625 C-2.96742187 3.23652344 -3.87234375 3.41054688 -4.8046875 3.58984375 C-7.18706317 4.02463701 -7.18706317 4.02463701 -9.1875 5.125 C-9.1875 4.135 -9.1875 3.145 -9.1875 2.125 C-5.66070901 -0.22619399 -4.15870515 -0.08943452 0 0 Z " fill="#F6EEC0" transform="translate(15.1875,-0.125)"/>
<path d="M0 0 C2.97 0 5.94 0 9 0 C8.67 0.66 8.34 1.32 8 2 C7.34 2 6.68 2 6 2 C6 2.99 6 3.98 6 5 C5.01 5 4.02 5 3 5 C2.67 5.99 2.34 6.98 2 8 C1.34 7.67 0.68 7.34 0 7 C0 4.69 0 2.38 0 0 Z " fill="#FCFDFB" transform="translate(0,0)"/>
<path d="M0 0 C0.66 0.33 1.32 0.66 2 1 C-0.83622612 4.25640777 -2.64929009 5.68923501 -7 6 C-10.3125 5.5625 -10.3125 5.5625 -13 5 C-13 4.34 -13 3.68 -13 3 C-11.96875 3.061875 -10.9375 3.12375 -9.875 3.1875 C-5.7475631 2.98778531 -3.58671007 1.91847283 0 0 Z " fill="#FBF6D8" transform="translate(24,26)"/>
<path d="M0 0 C3 1 3 1 4.1796875 2.734375 C5.13874367 5.38319681 5.19893014 7.44065467 5.125 10.25 C5.10695313 11.14203125 5.08890625 12.0340625 5.0703125 12.953125 C5.03550781 13.96632813 5.03550781 13.96632813 5 15 C4.34 15 3.68 15 3 15 C2.86722656 14.16855469 2.73445313 13.33710938 2.59765625 12.48046875 C2.42105469 11.39378906 2.24445312 10.30710937 2.0625 9.1875 C1.88847656 8.10855469 1.71445312 7.02960937 1.53515625 5.91796875 C1.06128079 2.95066644 1.06128079 2.95066644 0 0 Z " fill="#FDF9D9" transform="translate(26,5)"/>
<path d="M0 0 C2.22568901 2.22568901 3.64520503 4.15493056 5 7 C4.1875 9.3125 4.1875 9.3125 3 11 C2.525625 10.34 2.05125 9.68 1.5625 9 C1.046875 8.34 0.53125 7.68 0 7 C-0.33 7 -0.66 7 -1 7 C-1.04254356 5.00045254 -1.04080783 2.99958364 -1 1 C-0.67 0.67 -0.34 0.34 0 0 Z " fill="#E0B139" transform="translate(5,6)"/>
<path d="M0 0 C0.33 0 0.66 0 1 0 C1 1.65 1 3.3 1 5 C-1.64 5 -4.28 5 -7 5 C-7.33 4.01 -7.66 3.02 -8 2 C-3.25 0.875 -3.25 0.875 -1 2 C-0.67 1.34 -0.34 0.68 0 0 Z " fill="#E6B935" transform="translate(18,21)"/>
<path d="M0 0 C0.99 0 1.98 0 3 0 C4.4606285 2.64738916 5 3.89448334 5 7 C3.68 6.67 2.36 6.34 1 6 C1 5.34 1 4.68 1 4 C0.34 4 -0.32 4 -1 4 C-0.67 2.68 -0.34 1.36 0 0 Z " fill="#E7D271" transform="translate(23,4)"/>
<path d="M0 0 C1.4370809 -0.05422947 2.87475462 -0.09289723 4.3125 -0.125 C5.11300781 -0.14820312 5.91351563 -0.17140625 6.73828125 -0.1953125 C9 0 9 0 12 2 C7.28400182 2.92470553 4.32734391 3.22923777 0 1 C0 0.67 0 0.34 0 0 Z " fill="#D5BC5F" transform="translate(9,27)"/>
<path d="M0 0 C1.32 0.99 2.64 1.98 4 3 C2.35 3.33 0.7 3.66 -1 4 C-1.33 5.65 -1.66 7.3 -2 9 C-2.99 8.67 -3.98 8.34 -5 8 C-4.64950425 4.75791433 -4.43778819 3.38472296 -1.9375 1.1875 C-1.298125 0.795625 -0.65875 0.40375 0 0 Z " fill="#C89719" transform="translate(18,10)"/>
<path d="M0 0 C1.98 0.495 1.98 0.495 4 1 C3.67 2.98 3.34 4.96 3 7 C1.68 6.34 0.36 5.68 -1 5 C-0.67 3.35 -0.34 1.7 0 0 Z " fill="#C3A731" transform="translate(19,3)"/>
<path d="M0 0 C0.66 0 1.32 0 2 0 C2 2.31 2 4.62 2 7 C1.01 7.495 1.01 7.495 0 8 C0 7.01 0 6.02 0 5 C-0.99 5.33 -1.98 5.66 -3 6 C-3 5.34 -3 4.68 -3 4 C-2.34 4 -1.68 4 -1 4 C-0.67 2.68 -0.34 1.36 0 0 Z " fill="#E0AA20" transform="translate(25,11)"/>
<path d="M0 0 C2.33944736 0.28730055 4.6739143 0.61936779 7 1 C7 1.66 7 2.32 7 3 C5.68 3 4.36 3 3 3 C3 3.66 3 4.32 3 5 C2.34 5 1.68 5 1 5 C1 4.01 1 3.02 1 2 C0.34 1.67 -0.32 1.34 -1 1 C-0.67 0.67 -0.34 0.34 0 0 Z " fill="#C59417" transform="translate(11,7)"/>
<path d="M0 0 C1.98 0 3.96 0 6 0 C6 0.66 6 1.32 6 2 C2.77208445 4.1519437 1.71599191 4.20086443 -2 4 C-1.34 3.67 -0.68 3.34 0 3 C0 2.01 0 1.02 0 0 Z " fill="#D1AF45" transform="translate(20,24)"/>
</svg>
